%TF.GenerationSoftware,KiCad,Pcbnew,8.0.6*%
%TF.CreationDate,2025-02-01T11:22:54-03:00*%
%TF.ProjectId,breadboard-voltmeter-r00,62726561-6462-46f6-9172-642d766f6c74,rev?*%
%TF.SameCoordinates,Original*%
%TF.FileFunction,Copper,L2,Bot*%
%TF.FilePolarity,Positive*%
%FSLAX46Y46*%
G04 Gerber Fmt 4.6, Leading zero omitted, Abs format (unit mm)*
G04 Created by KiCad (PCBNEW 8.0.6) date 2025-02-01 11:22:54*
%MOMM*%
%LPD*%
G01*
G04 APERTURE LIST*
G04 Aperture macros list*
%AMRoundRect*
0 Rectangle with rounded corners*
0 $1 Rounding radius*
0 $2 $3 $4 $5 $6 $7 $8 $9 X,Y pos of 4 corners*
0 Add a 4 corners polygon primitive as box body*
4,1,4,$2,$3,$4,$5,$6,$7,$8,$9,$2,$3,0*
0 Add four circle primitives for the rounded corners*
1,1,$1+$1,$2,$3*
1,1,$1+$1,$4,$5*
1,1,$1+$1,$6,$7*
1,1,$1+$1,$8,$9*
0 Add four rect primitives between the rounded corners*
20,1,$1+$1,$2,$3,$4,$5,0*
20,1,$1+$1,$4,$5,$6,$7,0*
20,1,$1+$1,$6,$7,$8,$9,0*
20,1,$1+$1,$8,$9,$2,$3,0*%
G04 Aperture macros list end*
%TA.AperFunction,ComponentPad*%
%ADD10R,1.700000X1.700000*%
%TD*%
%TA.AperFunction,ComponentPad*%
%ADD11O,1.700000X1.700000*%
%TD*%
%TA.AperFunction,SMDPad,CuDef*%
%ADD12RoundRect,0.250000X0.250000X0.475000X-0.250000X0.475000X-0.250000X-0.475000X0.250000X-0.475000X0*%
%TD*%
%TA.AperFunction,SMDPad,CuDef*%
%ADD13RoundRect,0.250000X-0.262500X-0.450000X0.262500X-0.450000X0.262500X0.450000X-0.262500X0.450000X0*%
%TD*%
%TA.AperFunction,ViaPad*%
%ADD14C,0.600000*%
%TD*%
%TA.AperFunction,Conductor*%
%ADD15C,0.200000*%
%TD*%
G04 APERTURE END LIST*
D10*
%TO.P,J2,1,Pin_1*%
%TO.N,PowerSupply*%
X132960000Y-61100000D03*
D11*
%TO.P,J2,2,Pin_2*%
%TO.N,GND*%
X130420000Y-61100000D03*
%TO.P,J2,3,Pin_3*%
%TO.N,SWIO*%
X127880000Y-61100000D03*
%TO.P,J2,4,Pin_4*%
%TO.N,GND*%
X125340000Y-61100000D03*
%TO.P,J2,5,Pin_5*%
%TO.N,Net-(D1-K)*%
X122800000Y-61100000D03*
%TD*%
D10*
%TO.P,J1,1,Pin_1*%
%TO.N,SDA*%
X131600000Y-47000000D03*
D11*
%TO.P,J1,2,Pin_2*%
%TO.N,SCL*%
X129060000Y-47000000D03*
%TO.P,J1,3,Pin_3*%
%TO.N,PowerSupply*%
X126520000Y-47000000D03*
%TO.P,J1,4,Pin_4*%
%TO.N,GND*%
X123980000Y-47000000D03*
%TD*%
D12*
%TO.P,C1,1*%
%TO.N,PowerSupply*%
X133170000Y-53400000D03*
%TO.P,C1,2*%
%TO.N,GND*%
X131270000Y-53400000D03*
%TD*%
D13*
%TO.P,R3,1*%
%TO.N,Net-(R1-Pad2)*%
X125995000Y-58100000D03*
%TO.P,R3,2*%
%TO.N,Voltage*%
X127820000Y-58100000D03*
%TD*%
D12*
%TO.P,C2,1*%
%TO.N,Voltage*%
X127857500Y-56100000D03*
%TO.P,C2,2*%
%TO.N,GND*%
X125957500Y-56100000D03*
%TD*%
D13*
%TO.P,R2,1*%
%TO.N,Net-(R1-Pad2)*%
X122495000Y-56100000D03*
%TO.P,R2,2*%
%TO.N,GND*%
X124320000Y-56100000D03*
%TD*%
%TO.P,R1,1*%
%TO.N,Net-(D1-K)*%
X122495000Y-58100000D03*
%TO.P,R1,2*%
%TO.N,Net-(R1-Pad2)*%
X124320000Y-58100000D03*
%TD*%
D14*
%TO.N,SWIO*%
X128700000Y-51400000D03*
%TO.N,GND*%
X131200000Y-53400000D03*
%TO.N,Voltage*%
X127820000Y-57100000D03*
%TO.N,PowerSupply*%
X133400000Y-52100000D03*
X134100000Y-56800000D03*
%TD*%
D15*
%TO.N,SWIO*%
X128700000Y-60280000D02*
X127880000Y-61100000D01*
X128700000Y-51400000D02*
X128700000Y-60280000D01*
%TO.N,Voltage*%
X127820000Y-57100000D02*
X127820000Y-56137500D01*
X127820000Y-56137500D02*
X127857500Y-56100000D01*
X127820000Y-58100000D02*
X127820000Y-57100000D01*
%TO.N,Net-(R1-Pad2)*%
X124320000Y-58100000D02*
X125995000Y-58100000D01*
X124320000Y-57925000D02*
X122495000Y-56100000D01*
X124320000Y-58100000D02*
X124320000Y-57925000D01*
%TO.N,Net-(D1-K)*%
X122800000Y-58405000D02*
X122495000Y-58100000D01*
X122800000Y-61100000D02*
X122800000Y-58405000D01*
%TO.N,PowerSupply*%
X133170000Y-52330000D02*
X133400000Y-52100000D01*
X133170000Y-53400000D02*
X133170000Y-52330000D01*
X134100000Y-54500000D02*
X134100000Y-56800000D01*
X134100000Y-54330000D02*
X134100000Y-54500000D01*
X133170000Y-53400000D02*
X134100000Y-54330000D01*
%TD*%
%TA.AperFunction,Conductor*%
%TO.N,GND*%
G36*
X134578326Y-45421674D02*
G01*
X134600000Y-45474000D01*
X134600000Y-56414344D01*
X134578326Y-56466670D01*
X134526000Y-56488344D01*
X134473674Y-56466670D01*
X134470075Y-56462804D01*
X134431132Y-56417861D01*
X134431129Y-56417859D01*
X134431128Y-56417857D01*
X134431125Y-56417855D01*
X134427128Y-56414392D01*
X134429041Y-56412183D01*
X134402183Y-56373459D01*
X134400500Y-56357766D01*
X134400500Y-54290438D01*
X134392221Y-54259540D01*
X134392221Y-54259539D01*
X134380023Y-54214016D01*
X134380022Y-54214012D01*
X134340460Y-54145489D01*
X133892174Y-53697203D01*
X133870500Y-53644877D01*
X133870500Y-52870740D01*
X133870500Y-52870734D01*
X133867646Y-52840301D01*
X133822793Y-52712118D01*
X133822792Y-52712116D01*
X133742153Y-52602853D01*
X133742149Y-52602849D01*
X133735370Y-52597846D01*
X133706140Y-52549335D01*
X133719773Y-52494363D01*
X133730863Y-52482372D01*
X133731120Y-52482147D01*
X133731128Y-52482143D01*
X133825377Y-52373373D01*
X133885165Y-52242457D01*
X133905647Y-52100000D01*
X133885165Y-51957543D01*
X133825377Y-51826627D01*
X133731128Y-51717857D01*
X133674182Y-51681260D01*
X133610054Y-51640047D01*
X133610050Y-51640046D01*
X133471964Y-51599500D01*
X133471961Y-51599500D01*
X133328039Y-51599500D01*
X133328036Y-51599500D01*
X133189949Y-51640046D01*
X133189945Y-51640047D01*
X133068875Y-51717855D01*
X133068868Y-51717860D01*
X132974623Y-51826626D01*
X132914834Y-51957545D01*
X132894353Y-52100000D01*
X132902959Y-52159864D01*
X132893801Y-52207388D01*
X132889981Y-52214004D01*
X132889978Y-52214012D01*
X132869500Y-52290435D01*
X132869500Y-52412880D01*
X132847826Y-52465206D01*
X132819941Y-52482727D01*
X132707118Y-52522206D01*
X132707116Y-52522207D01*
X132597853Y-52602846D01*
X132597846Y-52602853D01*
X132517207Y-52712116D01*
X132517206Y-52712118D01*
X132472355Y-52840295D01*
X132472354Y-52840299D01*
X132472354Y-52840301D01*
X132469500Y-52870734D01*
X132469500Y-53929266D01*
X132472354Y-53959699D01*
X132472354Y-53959701D01*
X132472355Y-53959704D01*
X132517206Y-54087881D01*
X132517207Y-54087883D01*
X132597846Y-54197146D01*
X132597853Y-54197153D01*
X132707116Y-54277792D01*
X132707118Y-54277793D01*
X132835295Y-54322644D01*
X132835301Y-54322646D01*
X132865734Y-54325500D01*
X132865741Y-54325500D01*
X133474260Y-54325500D01*
X133474266Y-54325500D01*
X133504699Y-54322646D01*
X133581541Y-54295757D01*
X133638088Y-54298932D01*
X133658307Y-54313278D01*
X133777826Y-54432797D01*
X133799500Y-54485123D01*
X133799500Y-56357766D01*
X133777826Y-56410092D01*
X133772715Y-56414211D01*
X133772872Y-56414392D01*
X133768868Y-56417860D01*
X133674623Y-56526626D01*
X133614834Y-56657545D01*
X133594353Y-56800000D01*
X133614834Y-56942454D01*
X133614834Y-56942455D01*
X133614835Y-56942457D01*
X133661024Y-57043596D01*
X133674623Y-57073373D01*
X133768868Y-57182139D01*
X133768869Y-57182140D01*
X133768872Y-57182143D01*
X133889947Y-57259953D01*
X133996403Y-57291211D01*
X134028035Y-57300499D01*
X134028037Y-57300500D01*
X134028039Y-57300500D01*
X134171963Y-57300500D01*
X134171964Y-57300499D01*
X134310053Y-57259953D01*
X134431128Y-57182143D01*
X134470074Y-57137195D01*
X134520720Y-57111844D01*
X134574459Y-57129729D01*
X134599811Y-57180375D01*
X134600000Y-57185655D01*
X134600000Y-62526000D01*
X134578326Y-62578326D01*
X134526000Y-62600000D01*
X121374000Y-62600000D01*
X121321674Y-62578326D01*
X121300000Y-62526000D01*
X121300000Y-61100000D01*
X121744417Y-61100000D01*
X121764700Y-61305934D01*
X121824768Y-61503954D01*
X121922315Y-61686450D01*
X122053590Y-61846410D01*
X122213550Y-61977685D01*
X122396046Y-62075232D01*
X122594066Y-62135300D01*
X122800000Y-62155583D01*
X123005934Y-62135300D01*
X123203954Y-62075232D01*
X123386450Y-61977685D01*
X123546410Y-61846410D01*
X123677685Y-61686450D01*
X123775232Y-61503954D01*
X123835300Y-61305934D01*
X123855583Y-61100000D01*
X123843271Y-60974998D01*
X124246869Y-60974998D01*
X124246871Y-60975000D01*
X124855856Y-60975000D01*
X124840000Y-61034174D01*
X124840000Y-61165826D01*
X124855856Y-61225000D01*
X124246871Y-61225000D01*
X124246869Y-61225001D01*
X124254095Y-61302984D01*
X124309884Y-61499062D01*
X124309886Y-61499067D01*
X124400754Y-61681557D01*
X124400756Y-61681560D01*
X124523605Y-61844239D01*
X124523606Y-61844240D01*
X124674261Y-61981579D01*
X124847582Y-62088895D01*
X124847591Y-62088900D01*
X125037680Y-62162540D01*
X125215000Y-62195686D01*
X125215000Y-61584144D01*
X125274174Y-61600000D01*
X125405826Y-61600000D01*
X125465000Y-61584144D01*
X125465000Y-62195686D01*
X125642319Y-62162540D01*
X125832408Y-62088900D01*
X125832417Y-62088895D01*
X126005738Y-61981579D01*
X126005739Y-61981579D01*
X126156393Y-61844240D01*
X126156394Y-61844239D01*
X126279243Y-61681560D01*
X126279245Y-61681557D01*
X126370113Y-61499067D01*
X126370115Y-61499062D01*
X126425904Y-61302984D01*
X126433130Y-61225001D01*
X126433129Y-61225000D01*
X125824144Y-61225000D01*
X125840000Y-61165826D01*
X125840000Y-61100000D01*
X126824417Y-61100000D01*
X126844700Y-61305934D01*
X126904768Y-61503954D01*
X127002315Y-61686450D01*
X127133590Y-61846410D01*
X127293550Y-61977685D01*
X127476046Y-62075232D01*
X127674066Y-62135300D01*
X127880000Y-62155583D01*
X128085934Y-62135300D01*
X128283954Y-62075232D01*
X128466450Y-61977685D01*
X128626410Y-61846410D01*
X128757685Y-61686450D01*
X128855232Y-61503954D01*
X128915300Y-61305934D01*
X128935583Y-61100000D01*
X128923271Y-60974998D01*
X129326869Y-60974998D01*
X129326871Y-60975000D01*
X129935856Y-60975000D01*
X129920000Y-61034174D01*
X129920000Y-61165826D01*
X129935856Y-61225000D01*
X129326871Y-61225000D01*
X129326869Y-61225001D01*
X129334095Y-61302984D01*
X129389884Y-61499062D01*
X129389886Y-61499067D01*
X129480754Y-61681557D01*
X129480756Y-61681560D01*
X129603605Y-61844239D01*
X129603606Y-61844240D01*
X129754261Y-61981579D01*
X129927582Y-62088895D01*
X129927591Y-62088900D01*
X130117680Y-62162540D01*
X130295000Y-62195686D01*
X130295000Y-61584144D01*
X130354174Y-61600000D01*
X130485826Y-61600000D01*
X130545000Y-61584144D01*
X130545000Y-62195686D01*
X130722319Y-62162540D01*
X130912408Y-62088900D01*
X130912417Y-62088895D01*
X131085738Y-61981579D01*
X131085739Y-61981579D01*
X131236393Y-61844240D01*
X131236394Y-61844239D01*
X131359243Y-61681560D01*
X131359245Y-61681557D01*
X131450113Y-61499067D01*
X131450115Y-61499062D01*
X131505904Y-61302984D01*
X131513130Y-61225001D01*
X131513129Y-61225000D01*
X130904144Y-61225000D01*
X130920000Y-61165826D01*
X130920000Y-61034174D01*
X130904144Y-60975000D01*
X131513129Y-60975000D01*
X131513130Y-60974998D01*
X131505904Y-60897015D01*
X131450115Y-60700937D01*
X131450113Y-60700932D01*
X131359245Y-60518442D01*
X131359243Y-60518439D01*
X131236394Y-60355760D01*
X131236393Y-60355759D01*
X131098717Y-60230252D01*
X131909500Y-60230252D01*
X131909500Y-61969748D01*
X131917255Y-62008736D01*
X131921133Y-62028232D01*
X131950608Y-62072343D01*
X131965448Y-62094552D01*
X132009560Y-62124027D01*
X132031767Y-62138866D01*
X132031768Y-62138866D01*
X132031769Y-62138867D01*
X132090252Y-62150500D01*
X132090254Y-62150500D01*
X133829746Y-62150500D01*
X133829748Y-62150500D01*
X133888231Y-62138867D01*
X133954552Y-62094552D01*
X133998867Y-62028231D01*
X134010500Y-61969748D01*
X134010500Y-60230252D01*
X133998867Y-60171769D01*
X133954552Y-60105448D01*
X133906569Y-60073386D01*
X133888232Y-60061133D01*
X133888233Y-60061133D01*
X133858989Y-60055316D01*
X133829748Y-60049500D01*
X132090252Y-60049500D01*
X132061010Y-60055316D01*
X132031767Y-60061133D01*
X131965449Y-60105447D01*
X131965447Y-60105449D01*
X131921133Y-60171767D01*
X131921133Y-60171769D01*
X131909500Y-60230252D01*
X131098717Y-60230252D01*
X131085738Y-60218420D01*
X130912417Y-60111104D01*
X130912408Y-60111099D01*
X130722322Y-60037460D01*
X130545000Y-60004312D01*
X130545000Y-60615855D01*
X130485826Y-60600000D01*
X130354174Y-60600000D01*
X130295000Y-60615855D01*
X130295000Y-60004312D01*
X130294999Y-60004312D01*
X130117677Y-60037460D01*
X129927591Y-60111099D01*
X129927582Y-60111104D01*
X129754261Y-60218420D01*
X129754260Y-60218420D01*
X129603606Y-60355759D01*
X129603605Y-60355760D01*
X129480756Y-60518439D01*
X129480754Y-60518442D01*
X129389886Y-60700932D01*
X129389884Y-60700937D01*
X129334095Y-60897015D01*
X129326869Y-60974998D01*
X128923271Y-60974998D01*
X128915300Y-60894066D01*
X128855232Y-60696046D01*
X128830139Y-60649102D01*
X128824588Y-60592738D01*
X128843074Y-60561896D01*
X128940460Y-60464511D01*
X128980021Y-60395989D01*
X129000499Y-60319564D01*
X129000500Y-60319564D01*
X129000500Y-53922828D01*
X130520000Y-53922828D01*
X130526402Y-53982375D01*
X130526403Y-53982380D01*
X130576645Y-54117087D01*
X130576646Y-54117088D01*
X130662811Y-54232188D01*
X130777911Y-54318353D01*
X130777912Y-54318354D01*
X130912619Y-54368596D01*
X130912624Y-54368597D01*
X130972171Y-54375000D01*
X131145000Y-54375000D01*
X131395000Y-54375000D01*
X131567829Y-54375000D01*
X131627375Y-54368597D01*
X131627380Y-54368596D01*
X131762087Y-54318354D01*
X131762088Y-54318353D01*
X131877188Y-54232188D01*
X131963353Y-54117088D01*
X131963354Y-54117087D01*
X132013596Y-53982380D01*
X132013597Y-53982375D01*
X132020000Y-53922828D01*
X132020000Y-53525000D01*
X131395000Y-53525000D01*
X131395000Y-54375000D01*
X131145000Y-54375000D01*
X131145000Y-53525000D01*
X130520000Y-53525000D01*
X130520000Y-53922828D01*
X129000500Y-53922828D01*
X129000500Y-52877171D01*
X130520000Y-52877171D01*
X130520000Y-53275000D01*
X131145000Y-53275000D01*
X131395000Y-53275000D01*
X132020000Y-53275000D01*
X132020000Y-52877171D01*
X132013597Y-52817624D01*
X132013596Y-52817619D01*
X131963354Y-52682912D01*
X131963353Y-52682911D01*
X131877188Y-52567811D01*
X131762088Y-52481646D01*
X131762087Y-52481645D01*
X131627380Y-52431403D01*
X131627375Y-52431402D01*
X131567829Y-52425000D01*
X131395000Y-52425000D01*
X131395000Y-53275000D01*
X131145000Y-53275000D01*
X131145000Y-52425000D01*
X130972171Y-52425000D01*
X130912624Y-52431402D01*
X130912619Y-52431403D01*
X130777912Y-52481645D01*
X130777911Y-52481646D01*
X130662811Y-52567811D01*
X130576646Y-52682911D01*
X130576645Y-52682912D01*
X130526403Y-52817619D01*
X130526402Y-52817624D01*
X130520000Y-52877171D01*
X129000500Y-52877171D01*
X129000500Y-51842233D01*
X129022174Y-51789907D01*
X129027288Y-51785787D01*
X129027131Y-51785606D01*
X129031131Y-51782140D01*
X129086829Y-51717860D01*
X129125377Y-51673373D01*
X129185165Y-51542457D01*
X129205647Y-51400000D01*
X129185165Y-51257543D01*
X129125377Y-51126627D01*
X129031128Y-51017857D01*
X128974182Y-50981260D01*
X128910054Y-50940047D01*
X128910050Y-50940046D01*
X128771964Y-50899500D01*
X128771961Y-50899500D01*
X128628039Y-50899500D01*
X128628036Y-50899500D01*
X128489949Y-50940046D01*
X128489945Y-50940047D01*
X128368875Y-51017855D01*
X128368868Y-51017860D01*
X128274623Y-51126626D01*
X128214834Y-51257545D01*
X128194353Y-51400000D01*
X128214834Y-51542454D01*
X128274623Y-51673373D01*
X128368868Y-51782140D01*
X128372869Y-51785606D01*
X128370946Y-51787825D01*
X128397803Y-51826476D01*
X128399500Y-51842233D01*
X128399500Y-55145598D01*
X128377826Y-55197924D01*
X128325500Y-55219598D01*
X128301059Y-55215445D01*
X128192204Y-55177355D01*
X128192205Y-55177355D01*
X128192200Y-55177354D01*
X128192199Y-55177354D01*
X128161766Y-55174500D01*
X127553234Y-55174500D01*
X127522801Y-55177354D01*
X127522799Y-55177354D01*
X127522795Y-55177355D01*
X127394618Y-55222206D01*
X127394616Y-55222207D01*
X127285353Y-55302846D01*
X127285346Y-55302853D01*
X127204707Y-55412116D01*
X127204706Y-55412118D01*
X127159855Y-55540295D01*
X127159854Y-55540299D01*
X127159854Y-55540301D01*
X127157000Y-55570734D01*
X127157000Y-56629266D01*
X127159854Y-56659699D01*
X127159854Y-56659701D01*
X127159855Y-56659704D01*
X127204706Y-56787880D01*
X127204707Y-56787882D01*
X127285350Y-56897150D01*
X127285353Y-56897153D01*
X127302337Y-56909688D01*
X127331567Y-56958199D01*
X127331640Y-56979758D01*
X127314353Y-57099999D01*
X127330093Y-57209481D01*
X127316086Y-57264359D01*
X127300790Y-57279552D01*
X127235350Y-57327850D01*
X127154706Y-57437119D01*
X127109855Y-57565295D01*
X127109854Y-57565299D01*
X127109854Y-57565301D01*
X127107000Y-57595734D01*
X127107000Y-58604266D01*
X127109854Y-58634699D01*
X127109854Y-58634701D01*
X127109855Y-58634704D01*
X127154706Y-58762881D01*
X127154707Y-58762883D01*
X127235346Y-58872146D01*
X127235353Y-58872153D01*
X127344616Y-58952792D01*
X127344618Y-58952793D01*
X127472795Y-58997644D01*
X127472801Y-58997646D01*
X127503234Y-59000500D01*
X127503241Y-59000500D01*
X128136758Y-59000500D01*
X128136766Y-59000500D01*
X128167199Y-58997646D01*
X128214985Y-58980924D01*
X128300616Y-58950962D01*
X128301735Y-58954161D01*
X128347204Y-58949828D01*
X128390872Y-58985896D01*
X128399500Y-59020574D01*
X128399500Y-60063067D01*
X128377826Y-60115393D01*
X128325500Y-60137067D01*
X128290617Y-60128329D01*
X128283958Y-60124770D01*
X128283957Y-60124769D01*
X128283954Y-60124768D01*
X128141045Y-60081417D01*
X128085935Y-60064700D01*
X127880000Y-60044417D01*
X127674064Y-60064700D01*
X127476043Y-60124769D01*
X127293549Y-60222315D01*
X127133590Y-60353589D01*
X127133589Y-60353590D01*
X127002315Y-60513549D01*
X126904769Y-60696043D01*
X126844700Y-60894064D01*
X126830900Y-61034174D01*
X126824417Y-61100000D01*
X125840000Y-61100000D01*
X125840000Y-61034174D01*
X125824144Y-60975000D01*
X126433129Y-60975000D01*
X126433130Y-60974998D01*
X126425904Y-60897015D01*
X126370115Y-60700937D01*
X126370113Y-60700932D01*
X126279245Y-60518442D01*
X126279243Y-60518439D01*
X126156394Y-60355760D01*
X126156393Y-60355759D01*
X126005738Y-60218420D01*
X125832417Y-60111104D01*
X125832408Y-60111099D01*
X125642322Y-60037460D01*
X125465000Y-60004312D01*
X125465000Y-60615855D01*
X125405826Y-60600000D01*
X125274174Y-60600000D01*
X125215000Y-60615855D01*
X125215000Y-60004312D01*
X125214999Y-60004312D01*
X125037677Y-60037460D01*
X124847591Y-60111099D01*
X124847582Y-60111104D01*
X124674261Y-60218420D01*
X124674260Y-60218420D01*
X124523606Y-60355759D01*
X124523605Y-60355760D01*
X124400756Y-60518439D01*
X124400754Y-60518442D01*
X124309886Y-60700932D01*
X124309884Y-60700937D01*
X124254095Y-60897015D01*
X124246869Y-60974998D01*
X123843271Y-60974998D01*
X123835300Y-60894066D01*
X123775232Y-60696046D01*
X123677685Y-60513550D01*
X123546410Y-60353590D01*
X123386450Y-60222315D01*
X123379163Y-60218420D01*
X123203961Y-60124771D01*
X123203956Y-60124769D01*
X123203954Y-60124768D01*
X123203950Y-60124766D01*
X123203948Y-60124766D01*
X123153018Y-60109316D01*
X123109237Y-60073386D01*
X123100500Y-60038503D01*
X123100500Y-58868249D01*
X123114960Y-58824306D01*
X123160293Y-58762882D01*
X123205146Y-58634699D01*
X123208000Y-58604266D01*
X123208000Y-57595734D01*
X123205146Y-57565301D01*
X123160293Y-57437118D01*
X123160292Y-57437116D01*
X123079653Y-57327853D01*
X123079646Y-57327846D01*
X122970383Y-57247207D01*
X122970381Y-57247206D01*
X122842204Y-57202355D01*
X122842205Y-57202355D01*
X122842200Y-57202354D01*
X122842199Y-57202354D01*
X122811766Y-57199500D01*
X122178234Y-57199500D01*
X122147801Y-57202354D01*
X122147799Y-57202354D01*
X122147795Y-57202355D01*
X122019618Y-57247206D01*
X122019616Y-57247207D01*
X121910353Y-57327846D01*
X121910346Y-57327853D01*
X121829707Y-57437116D01*
X121829706Y-57437118D01*
X121784855Y-57565295D01*
X121784854Y-57565299D01*
X121784854Y-57565301D01*
X121782000Y-57595734D01*
X121782000Y-58604266D01*
X121784854Y-58634699D01*
X121784854Y-58634701D01*
X121784855Y-58634704D01*
X121829706Y-58762881D01*
X121829707Y-58762883D01*
X121910346Y-58872146D01*
X121910353Y-58872153D01*
X122019616Y-58952792D01*
X122019618Y-58952793D01*
X122147795Y-58997644D01*
X122147801Y-58997646D01*
X122178234Y-59000500D01*
X122425500Y-59000500D01*
X122477826Y-59022174D01*
X122499500Y-59074500D01*
X122499500Y-60038503D01*
X122477826Y-60090829D01*
X122446982Y-60109316D01*
X122396051Y-60124766D01*
X122396038Y-60124771D01*
X122213549Y-60222315D01*
X122053590Y-60353589D01*
X122053589Y-60353590D01*
X121922315Y-60513549D01*
X121824769Y-60696043D01*
X121764700Y-60894064D01*
X121750900Y-61034174D01*
X121744417Y-61100000D01*
X121300000Y-61100000D01*
X121300000Y-55595734D01*
X121782000Y-55595734D01*
X121782000Y-56604266D01*
X121784854Y-56634699D01*
X121784854Y-56634701D01*
X121784855Y-56634704D01*
X121829706Y-56762881D01*
X121829707Y-56762883D01*
X121910346Y-56872146D01*
X121910353Y-56872153D01*
X122019616Y-56952792D01*
X122019618Y-56952793D01*
X122147795Y-56997644D01*
X122147801Y-56997646D01*
X122178234Y-57000500D01*
X122178241Y-57000500D01*
X122811758Y-57000500D01*
X122811766Y-57000500D01*
X122842199Y-56997646D01*
X122891261Y-56980478D01*
X122947808Y-56983653D01*
X122968028Y-56997999D01*
X123585326Y-57615297D01*
X123607000Y-57667623D01*
X123607000Y-58604266D01*
X123609854Y-58634699D01*
X123609854Y-58634701D01*
X123609855Y-58634704D01*
X123654706Y-58762881D01*
X123654707Y-58762883D01*
X123735346Y-58872146D01*
X123735353Y-58872153D01*
X123844616Y-58952792D01*
X123844618Y-58952793D01*
X123972795Y-58997644D01*
X123972801Y-58997646D01*
X124003234Y-59000500D01*
X124003241Y-59000500D01*
X124636758Y-59000500D01*
X124636766Y-59000500D01*
X124667199Y-58997646D01*
X124795382Y-58952793D01*
X124904650Y-58872150D01*
X124985293Y-58762882D01*
X125030146Y-58634699D01*
X125033000Y-58604266D01*
X125033000Y-58474500D01*
X125054674Y-58422174D01*
X125107000Y-58400500D01*
X125208000Y-58400500D01*
X125260326Y-58422174D01*
X125282000Y-58474500D01*
X125282000Y-58604266D01*
X125284854Y-58634699D01*
X125284854Y-58634701D01*
X125284855Y-58634704D01*
X125329706Y-58762881D01*
X125329707Y-58762883D01*
X125410346Y-58872146D01*
X125410353Y-58872153D01*
X125519616Y-58952792D01*
X125519618Y-58952793D01*
X125647795Y-58997644D01*
X125647801Y-58997646D01*
X125678234Y-59000500D01*
X125678241Y-59000500D01*
X126311758Y-59000500D01*
X126311766Y-59000500D01*
X126342199Y-58997646D01*
X126470382Y-58952793D01*
X126579650Y-58872150D01*
X126660293Y-58762882D01*
X126705146Y-58634699D01*
X126708000Y-58604266D01*
X126708000Y-57595734D01*
X126705146Y-57565301D01*
X126660293Y-57437118D01*
X126660292Y-57437116D01*
X126579653Y-57327853D01*
X126579646Y-57327846D01*
X126470383Y-57247207D01*
X126470381Y-57247206D01*
X126337949Y-57200866D01*
X126338687Y-57198754D01*
X126298129Y-57170533D01*
X126288130Y-57114785D01*
X126320479Y-57068295D01*
X126334563Y-57061255D01*
X126449587Y-57018354D01*
X126449588Y-57018353D01*
X126564688Y-56932188D01*
X126650853Y-56817088D01*
X126650854Y-56817087D01*
X126701096Y-56682380D01*
X126701097Y-56682375D01*
X126707500Y-56622828D01*
X126707500Y-56225000D01*
X125906500Y-56225000D01*
X125854174Y-56203326D01*
X125832500Y-56151000D01*
X125832500Y-55975000D01*
X126082500Y-55975000D01*
X126707500Y-55975000D01*
X126707500Y-55577171D01*
X126701097Y-55517624D01*
X126701096Y-55517619D01*
X126650854Y-55382912D01*
X126650853Y-55382911D01*
X126564688Y-55267811D01*
X126449588Y-55181646D01*
X126449587Y-55181645D01*
X126314880Y-55131403D01*
X126314875Y-55131402D01*
X126255329Y-55125000D01*
X126082500Y-55125000D01*
X126082500Y-55975000D01*
X125832500Y-55975000D01*
X125832500Y-55125000D01*
X125659671Y-55125000D01*
X125600124Y-55131402D01*
X125600119Y-55131403D01*
X125465412Y-55181645D01*
X125465411Y-55181646D01*
X125350311Y-55267811D01*
X125264146Y-55382911D01*
X125264145Y-55382912D01*
X125213901Y-55517623D01*
X125212938Y-55521700D01*
X125179807Y-55567636D01*
X125123898Y-55576690D01*
X125077962Y-55543559D01*
X125071589Y-55530535D01*
X125025854Y-55407912D01*
X125025853Y-55407911D01*
X124939688Y-55292811D01*
X124824588Y-55206646D01*
X124824587Y-55206645D01*
X124689880Y-55156403D01*
X124689875Y-55156402D01*
X124630329Y-55150000D01*
X124445000Y-55150000D01*
X124445000Y-57050000D01*
X124630329Y-57050000D01*
X124689875Y-57043597D01*
X124689880Y-57043596D01*
X124824587Y-56993354D01*
X124824588Y-56993353D01*
X124939688Y-56907188D01*
X125025851Y-56792090D01*
X125071588Y-56669464D01*
X125110182Y-56628012D01*
X125166783Y-56625989D01*
X125208235Y-56664583D01*
X125212938Y-56678301D01*
X125213900Y-56682373D01*
X125264145Y-56817087D01*
X125264146Y-56817088D01*
X125350311Y-56932188D01*
X125465411Y-57018353D01*
X125465412Y-57018354D01*
X125600119Y-57068596D01*
X125600125Y-57068598D01*
X125602813Y-57068887D01*
X125603930Y-57069497D01*
X125604628Y-57069662D01*
X125604582Y-57069853D01*
X125652523Y-57096030D01*
X125668480Y-57150372D01*
X125641337Y-57200082D01*
X125619345Y-57212310D01*
X125519618Y-57247206D01*
X125519616Y-57247207D01*
X125410353Y-57327846D01*
X125410346Y-57327853D01*
X125329707Y-57437116D01*
X125329706Y-57437118D01*
X125284855Y-57565295D01*
X125284854Y-57565299D01*
X125284854Y-57565301D01*
X125282000Y-57595734D01*
X125282000Y-57595740D01*
X125282000Y-57725500D01*
X125260326Y-57777826D01*
X125208000Y-57799500D01*
X125107000Y-57799500D01*
X125054674Y-57777826D01*
X125033000Y-57725500D01*
X125033000Y-57595740D01*
X125033000Y-57595734D01*
X125030146Y-57565301D01*
X124985293Y-57437118D01*
X124985292Y-57437116D01*
X124904653Y-57327853D01*
X124904646Y-57327846D01*
X124795383Y-57247207D01*
X124795381Y-57247206D01*
X124667204Y-57202355D01*
X124667205Y-57202355D01*
X124667200Y-57202354D01*
X124667199Y-57202354D01*
X124636766Y-57199500D01*
X124636760Y-57199500D01*
X124050123Y-57199500D01*
X123997797Y-57177826D01*
X123996297Y-57176326D01*
X123974623Y-57124000D01*
X123996297Y-57071674D01*
X124048623Y-57050000D01*
X124195000Y-57050000D01*
X124195000Y-56225000D01*
X123557500Y-56225000D01*
X123557500Y-56558877D01*
X123535826Y-56611203D01*
X123483500Y-56632877D01*
X123431174Y-56611203D01*
X123229674Y-56409703D01*
X123208000Y-56357377D01*
X123208000Y-55602171D01*
X123557500Y-55602171D01*
X123557500Y-55975000D01*
X124195000Y-55975000D01*
X124195000Y-55150000D01*
X124009671Y-55150000D01*
X123950124Y-55156402D01*
X123950119Y-55156403D01*
X123815412Y-55206645D01*
X123815411Y-55206646D01*
X123700311Y-55292811D01*
X123614146Y-55407911D01*
X123614145Y-55407912D01*
X123563903Y-55542619D01*
X123563902Y-55542624D01*
X123557500Y-55602171D01*
X123208000Y-55602171D01*
X123208000Y-55595740D01*
X123208000Y-55595734D01*
X123205146Y-55565301D01*
X123160293Y-55437118D01*
X123160292Y-55437116D01*
X123079653Y-55327853D01*
X123079646Y-55327846D01*
X122970383Y-55247207D01*
X122970381Y-55247206D01*
X122842204Y-55202355D01*
X122842205Y-55202355D01*
X122842200Y-55202354D01*
X122842199Y-55202354D01*
X122811766Y-55199500D01*
X122178234Y-55199500D01*
X122147801Y-55202354D01*
X122147799Y-55202354D01*
X122147795Y-55202355D01*
X122019618Y-55247206D01*
X122019616Y-55247207D01*
X121910353Y-55327846D01*
X121910346Y-55327853D01*
X121829707Y-55437116D01*
X121829706Y-55437118D01*
X121784855Y-55565295D01*
X121784854Y-55565299D01*
X121784854Y-55565301D01*
X121782000Y-55595734D01*
X121300000Y-55595734D01*
X121300000Y-46874998D01*
X122886869Y-46874998D01*
X122886871Y-46875000D01*
X123495856Y-46875000D01*
X123480000Y-46934174D01*
X123480000Y-47065826D01*
X123495856Y-47125000D01*
X122886871Y-47125000D01*
X122886869Y-47125001D01*
X122894095Y-47202984D01*
X122949884Y-47399062D01*
X122949886Y-47399067D01*
X123040754Y-47581557D01*
X123040756Y-47581560D01*
X123163605Y-47744239D01*
X123163606Y-47744240D01*
X123314261Y-47881579D01*
X123487582Y-47988895D01*
X123487591Y-47988900D01*
X123677680Y-48062540D01*
X123855000Y-48095686D01*
X123855000Y-47484144D01*
X123914174Y-47500000D01*
X124045826Y-47500000D01*
X124105000Y-47484144D01*
X124105000Y-48095686D01*
X124282319Y-48062540D01*
X124472408Y-47988900D01*
X124472417Y-47988895D01*
X124645738Y-47881579D01*
X124645739Y-47881579D01*
X124796393Y-47744240D01*
X124796394Y-47744239D01*
X124919243Y-47581560D01*
X124919245Y-47581557D01*
X125010113Y-47399067D01*
X125010115Y-47399062D01*
X125065904Y-47202984D01*
X125073130Y-47125001D01*
X125073129Y-47125000D01*
X124464144Y-47125000D01*
X124480000Y-47065826D01*
X124480000Y-47000000D01*
X125464417Y-47000000D01*
X125484700Y-47205934D01*
X125544768Y-47403954D01*
X125642315Y-47586450D01*
X125773590Y-47746410D01*
X125933550Y-47877685D01*
X126116046Y-47975232D01*
X126314066Y-48035300D01*
X126520000Y-48055583D01*
X126725934Y-48035300D01*
X126923954Y-47975232D01*
X127106450Y-47877685D01*
X127266410Y-47746410D01*
X127397685Y-47586450D01*
X127495232Y-47403954D01*
X127555300Y-47205934D01*
X127575583Y-47000000D01*
X128004417Y-47000000D01*
X128024700Y-47205934D01*
X128084768Y-47403954D01*
X128182315Y-47586450D01*
X128313590Y-47746410D01*
X128473550Y-47877685D01*
X128656046Y-47975232D01*
X128854066Y-48035300D01*
X129060000Y-48055583D01*
X129265934Y-48035300D01*
X129463954Y-47975232D01*
X129646450Y-47877685D01*
X129806410Y-47746410D01*
X129937685Y-47586450D01*
X130035232Y-47403954D01*
X130095300Y-47205934D01*
X130115583Y-47000000D01*
X130095300Y-46794066D01*
X130035232Y-46596046D01*
X129937685Y-46413550D01*
X129806410Y-46253590D01*
X129656121Y-46130252D01*
X130549500Y-46130252D01*
X130549500Y-47869748D01*
X130557255Y-47908736D01*
X130561133Y-47928232D01*
X130590608Y-47972343D01*
X130605448Y-47994552D01*
X130649560Y-48024027D01*
X130671767Y-48038866D01*
X130671768Y-48038866D01*
X130671769Y-48038867D01*
X130730252Y-48050500D01*
X130730254Y-48050500D01*
X132469746Y-48050500D01*
X132469748Y-48050500D01*
X132528231Y-48038867D01*
X132594552Y-47994552D01*
X132638867Y-47928231D01*
X132650500Y-47869748D01*
X132650500Y-46130252D01*
X132638867Y-46071769D01*
X132594552Y-46005448D01*
X132572343Y-45990608D01*
X132528232Y-45961133D01*
X132528233Y-45961133D01*
X132498989Y-45955316D01*
X132469748Y-45949500D01*
X130730252Y-45949500D01*
X130701010Y-45955316D01*
X130671767Y-45961133D01*
X130605449Y-46005447D01*
X130605447Y-46005449D01*
X130561133Y-46071767D01*
X130561133Y-46071769D01*
X130549500Y-46130252D01*
X129656121Y-46130252D01*
X129646450Y-46122315D01*
X129463954Y-46024768D01*
X129352158Y-45990855D01*
X129265935Y-45964700D01*
X129060000Y-45944417D01*
X128854064Y-45964700D01*
X128656043Y-46024769D01*
X128473549Y-46122315D01*
X128313590Y-46253589D01*
X128313589Y-46253590D01*
X128182315Y-46413549D01*
X128084769Y-46596043D01*
X128024700Y-46794064D01*
X128010900Y-46934174D01*
X128004417Y-47000000D01*
X127575583Y-47000000D01*
X127555300Y-46794066D01*
X127495232Y-46596046D01*
X127397685Y-46413550D01*
X127266410Y-46253590D01*
X127106450Y-46122315D01*
X126923954Y-46024768D01*
X126812158Y-45990855D01*
X126725935Y-45964700D01*
X126520000Y-45944417D01*
X126314064Y-45964700D01*
X126116043Y-46024769D01*
X125933549Y-46122315D01*
X125773590Y-46253589D01*
X125773589Y-46253590D01*
X125642315Y-46413549D01*
X125544769Y-46596043D01*
X125484700Y-46794064D01*
X125470900Y-46934174D01*
X125464417Y-47000000D01*
X124480000Y-47000000D01*
X124480000Y-46934174D01*
X124464144Y-46875000D01*
X125073129Y-46875000D01*
X125073130Y-46874998D01*
X125065904Y-46797015D01*
X125010115Y-46600937D01*
X125010113Y-46600932D01*
X124919245Y-46418442D01*
X124919243Y-46418439D01*
X124796394Y-46255760D01*
X124796393Y-46255759D01*
X124645738Y-46118420D01*
X124472417Y-46011104D01*
X124472408Y-46011099D01*
X124282322Y-45937460D01*
X124105000Y-45904312D01*
X124105000Y-46515855D01*
X124045826Y-46500000D01*
X123914174Y-46500000D01*
X123855000Y-46515855D01*
X123855000Y-45904312D01*
X123854999Y-45904312D01*
X123677677Y-45937460D01*
X123487591Y-46011099D01*
X123487582Y-46011104D01*
X123314261Y-46118420D01*
X123314260Y-46118420D01*
X123163606Y-46255759D01*
X123163605Y-46255760D01*
X123040756Y-46418439D01*
X123040754Y-46418442D01*
X122949886Y-46600932D01*
X122949884Y-46600937D01*
X122894095Y-46797015D01*
X122886869Y-46874998D01*
X121300000Y-46874998D01*
X121300000Y-45474000D01*
X121321674Y-45421674D01*
X121374000Y-45400000D01*
X134526000Y-45400000D01*
X134578326Y-45421674D01*
G37*
%TD.AperFunction*%
%TD*%
M02*
